<svg width="25" height="25" viewBox="0 0 25 25" fill="none" xmlns="http://www.w3.org/2000/svg">
<path fill-rule="evenodd" clip-rule="evenodd" d="M11.0069 2.12609C10.8872 1.63117 10.6349 1.17826 10.2769 0.816092C9.92558 0.462625 9.48769 0.207473 9.00693 0.076092C8.62727 0.0111181 8.24167 -0.0123533 7.85693 0.00609204H3.23693C2.86507 -0.0109196 2.49251 0.015932 2.12693 0.086092C1.63029 0.201353 1.17624 0.454376 0.816932 0.816092C0.45618 1.17768 0.20041 1.63047 0.0769325 2.12609C0.0155272 2.4927 -0.00793007 2.86467 0.00693245 3.23609V7.85609C-0.0141004 8.24126 0.0127718 8.62755 0.0869325 9.00609C0.199921 9.50651 0.453137 9.96438 0.816932 10.3261C1.18492 10.6658 1.63731 10.9007 2.12693 11.0061C2.49251 11.0763 2.86507 11.1031 3.23693 11.0861H7.85693C8.2421 11.1071 8.62839 11.0803 9.00693 11.0061C9.5058 10.8891 9.96262 10.6364 10.3269 10.2761C10.6594 9.9185 10.8936 9.481 11.0069 9.00609C11.077 8.64388 11.1039 8.27463 11.0869 7.90609V3.23609C11.1039 2.86423 11.0771 2.49167 11.0069 2.12609ZM9.23693 7.75609C9.26214 8.01214 9.26214 8.27004 9.23693 8.52609C9.20982 8.70544 9.12972 8.87259 9.00693 9.00609C8.88652 9.12892 8.73409 9.21553 8.56693 9.25609C8.31049 9.27112 8.05338 9.27112 7.79693 9.25609H3.32693C3.07088 9.2813 2.81298 9.2813 2.55693 9.25609C2.39336 9.21382 2.24459 9.12733 2.12693 9.00609C2.00086 8.88821 1.91366 8.73474 1.87693 8.56609C1.85537 8.30988 1.85537 8.05231 1.87693 7.79609V3.32609C1.85578 3.06986 1.85578 2.81232 1.87693 2.55609C1.92116 2.39042 2.00725 2.2389 2.12693 2.11609C2.24579 1.9985 2.39445 1.91553 2.55693 1.87609C2.81318 1.85539 3.07068 1.85539 3.32693 1.87609H7.75693C8.01316 1.85494 8.2707 1.85494 8.52693 1.87609C8.70838 1.90942 8.87562 1.99652 9.00693 2.12609C9.12736 2.24438 9.21372 2.39291 9.25693 2.55609C9.27163 2.81255 9.27163 3.06964 9.25693 3.32609L9.23693 7.75609Z" fill="#B3B3B3"/>
<path fill-rule="evenodd" clip-rule="evenodd" d="M23.9269 2.12627C23.812 1.63477 23.5649 1.18403 23.2124 0.822732C22.8599 0.461435 22.4154 0.203319 21.9269 0.0762699C21.5471 0.0124446 21.1617 -0.0110194 20.7769 0.00626985H16.1569C15.7718 -0.0134561 15.3856 0.013405 15.0069 0.0862698C14.5103 0.201531 14.0562 0.454554 13.6969 0.81627C13.3536 1.18311 13.1152 1.6356 13.0069 2.12627C12.9368 2.49184 12.9099 2.86441 12.9269 3.23627V7.85627C12.9059 8.24144 12.9328 8.62772 13.0069 9.00627C13.1259 9.49049 13.3751 9.9329 13.7277 10.2855C14.0803 10.6381 14.5227 10.8873 15.0069 11.0063C15.3726 11.076 15.7451 11.1028 16.1169 11.0863H20.7369C21.1221 11.106 21.5082 11.0791 21.8869 11.0063C22.3818 10.8866 22.8348 10.6342 23.1969 10.2763C23.5475 9.92434 23.7993 9.48633 23.9269 9.00627C24.0011 8.62772 24.028 8.24144 24.0069 7.85627V3.23627C24.0239 2.86441 23.9971 2.49184 23.9269 2.12627ZM22.1569 7.75627C22.1716 8.01273 22.1716 8.26981 22.1569 8.52627C22.1104 8.69064 22.0226 8.84036 21.9018 8.96114C21.781 9.08193 21.6313 9.16977 21.4669 9.21627C21.2138 9.23118 20.96 9.23118 20.7069 9.21627H16.2469C15.9942 9.2418 15.7396 9.2418 15.4869 9.21627C15.3098 9.19484 15.1429 9.12181 15.0069 9.00627C14.8841 8.88586 14.7975 8.73342 14.7569 8.56627C14.7419 8.30982 14.7419 8.05272 14.7569 7.79627V3.32627C14.7358 3.07004 14.7358 2.8125 14.7569 2.55627C14.8012 2.39059 14.8873 2.23908 15.0069 2.11627C15.1282 1.99666 15.2807 1.91351 15.4469 1.87627C15.6998 1.85484 15.9541 1.85484 16.2069 1.87627H20.6469C20.9032 1.85556 21.1607 1.85556 21.4169 1.87627C21.5783 1.92333 21.7252 2.01031 21.844 2.12916C21.9629 2.24802 22.0499 2.39491 22.0969 2.55627C22.1181 2.8125 22.1181 3.07004 22.0969 3.32627L22.1569 7.75627Z" fill="#CDCCCC"/>
<path fill-rule="evenodd" clip-rule="evenodd" d="M11.0069 15.0063C10.888 14.5221 10.6387 14.0797 10.2861 13.7271C9.93355 13.3746 9.49115 13.1253 9.00693 13.0063C8.64472 12.9362 8.27547 12.9094 7.90693 12.9263H3.23693C2.86507 12.9093 2.4925 12.9362 2.12693 13.0063C1.63201 13.126 1.17909 13.3784 0.816926 13.7363C0.461623 14.0846 0.209063 14.524 0.086926 15.0063C0.0140611 15.3851 -0.0128 15.7712 0.00692598 16.1563V20.7763C-0.00758436 21.1478 0.0158706 21.5197 0.076926 21.8863C0.203975 22.3748 0.462091 22.8194 0.823388 23.1718C1.18469 23.5243 1.63543 23.7714 2.12693 23.8863C2.49091 23.9699 2.86349 24.0102 3.23693 24.0063H7.85693C8.24209 24.0274 8.62838 24.0005 9.00693 23.9263C9.50487 23.8069 9.96107 23.5546 10.3269 23.1963C10.6667 22.8283 10.9015 22.376 11.0069 21.8863C11.0766 21.5207 11.1035 21.1482 11.0869 20.7763V16.1563C11.1067 15.7712 11.0798 15.3851 11.0069 15.0063ZM9.23693 20.6863C9.25184 20.9395 9.25184 21.1932 9.23693 21.4463C9.19042 21.6107 9.10259 21.7604 8.9818 21.8812C8.86101 22.002 8.7113 22.0898 8.54693 22.1363C8.29047 22.151 8.03338 22.151 7.77693 22.1363H3.32693C3.07069 22.1575 2.81316 22.1575 2.55693 22.1363C2.39557 22.0893 2.24867 22.0023 2.12982 21.8834C2.01097 21.7646 1.92399 21.6177 1.87693 21.4563C1.85622 21.2001 1.85622 20.9426 1.87693 20.6863V16.2463C1.85506 15.9935 1.85506 15.7392 1.87693 15.4863C1.90574 15.3034 1.99352 15.1348 2.12693 15.0063C2.24521 14.8859 2.39375 14.7996 2.55693 14.7563C2.81316 14.7352 3.07069 14.7352 3.32693 14.7563H7.75693C8.01337 14.7413 8.27048 14.7413 8.52693 14.7563C8.70837 14.7897 8.87561 14.8768 9.00693 15.0063C9.12653 15.1276 9.20969 15.2801 9.24693 15.4463C9.27246 15.699 9.27246 15.9536 9.24693 16.2063L9.23693 20.6863Z" fill="#B3B3B3"/>
<path fill-rule="evenodd" clip-rule="evenodd" d="M23.9269 15.0062C23.807 14.5225 23.5574 14.0806 23.205 13.7282C22.8525 13.3758 22.4107 13.1261 21.9269 13.0062C21.5613 12.9365 21.1888 12.9096 20.8169 12.9262H16.1569C15.7718 12.9065 15.3857 12.9333 15.0069 13.0062C14.5232 13.1261 14.0813 13.3758 13.7289 13.7282C13.3765 14.0806 13.1269 14.5225 13.0069 15.0062C12.9372 15.3718 12.9104 15.7443 12.9269 16.1162V20.7362C12.9072 21.1213 12.9341 21.5075 13.0069 21.8862C13.1269 22.3699 13.3765 22.8118 13.7289 23.1642C14.0813 23.5166 14.5232 23.7662 15.0069 23.8862C15.3726 23.9559 15.7451 23.9827 16.1169 23.9662H20.7369C21.1088 23.9827 21.4813 23.9559 21.8469 23.8862C22.3436 23.7709 22.7976 23.5179 23.1569 23.1562C23.5149 22.794 23.7672 22.3411 23.8869 21.8462C23.9674 21.4952 24.0077 21.1363 24.0069 20.7762V16.1562C24.0267 15.771 23.9998 15.3849 23.9269 15.0062ZM22.1569 20.6462C22.1713 20.9027 22.1713 21.1597 22.1569 21.4162C22.1137 21.5794 22.0274 21.7279 21.9069 21.8462C21.7865 21.969 21.6341 22.0556 21.4669 22.0962C21.2141 22.1176 20.9598 22.1176 20.7069 22.0962H16.2469C15.9938 22.1111 15.7401 22.1111 15.4869 22.0962C15.3226 22.0497 15.1729 21.9619 15.0521 21.8411C14.9313 21.7203 14.8434 21.5706 14.7969 21.4062C14.7817 21.1531 14.7817 20.8993 14.7969 20.6462V16.2462C14.7755 15.9933 14.7755 15.7391 14.7969 15.4862C14.8434 15.3218 14.9313 15.1721 15.0521 15.0513C15.1729 14.9305 15.3226 14.8427 15.4869 14.7962C15.7401 14.7813 15.9938 14.7813 16.2469 14.7962H20.6869C20.9432 14.7755 21.2007 14.7755 21.4569 14.7962C21.6201 14.8394 21.7687 14.9258 21.8869 15.0462C22.0098 15.1666 22.0964 15.319 22.1369 15.4862C22.1584 15.7391 22.1584 15.9933 22.1369 16.2462L22.1569 20.6462Z" fill="#B3B3B3"/>
</svg>
