<svg width="25" height="24" viewBox="0 0 25 24" fill="none" xmlns="http://www.w3.org/2000/svg">
<path opacity="0.3" d="M18.6703 22.2204C18.1793 22.2151 17.7017 22.0587 17.3027 21.7724C16.9037 21.4862 16.6026 21.0839 16.4403 20.6204C16.4403 20.5304 16.4403 20.4404 16.3603 20.4404H8.44031C8.44031 20.5304 8.44031 20.6204 8.36031 20.6204C8.23015 21.0859 7.94967 21.4952 7.56259 21.7846C7.17551 22.074 6.70357 22.2273 6.22031 22.2204C5.98426 22.2204 5.75789 22.3142 5.59098 22.4811C5.42407 22.648 5.33031 22.8744 5.33031 23.1104C5.33031 23.3465 5.42407 23.5728 5.59098 23.7398C5.75789 23.9067 5.98426 24.0004 6.22031 24.0004H18.6703C18.9064 24.0004 19.1327 23.9067 19.2996 23.7398C19.4665 23.5728 19.5603 23.3465 19.5603 23.1104C19.5603 22.8744 19.4665 22.648 19.2996 22.4811C19.1327 22.3142 18.9064 22.2204 18.6703 22.2204Z" fill="black"/>
<path d="M14.2203 11.5603H16.0003C16.2363 11.5603 16.4627 11.4665 16.6296 11.2996C16.7965 11.1327 16.8903 10.9063 16.8903 10.6703C16.8903 10.4342 16.7965 10.2079 16.6296 10.0409C16.4627 9.87404 16.2363 9.78027 16.0003 9.78027H14.2203C13.9843 9.78027 13.7579 9.87404 13.591 10.0409C13.4241 10.2079 13.3303 10.4342 13.3303 10.6703C13.3303 10.9063 13.4241 11.1327 13.591 11.2996C13.7579 11.4665 13.9843 11.5603 14.2203 11.5603Z" fill="#CDCCCC"/>
<path d="M22.2203 0.000308941H2.67031C2.31819 -0.00508849 1.96857 0.0602862 1.64219 0.192555C1.31582 0.324824 1.01932 0.521293 0.770309 0.770309C0.521293 1.01932 0.324824 1.31582 0.192555 1.64219C0.0602862 1.96857 -0.00508849 2.31819 0.000308941 2.67031V16.0003C-0.00508849 16.3524 0.0602862 16.702 0.192555 17.0284C0.324824 17.3548 0.521293 17.6513 0.770309 17.9003C1.01932 18.1493 1.31582 18.3458 1.64219 18.4781C1.96857 18.6103 2.31819 18.6757 2.67031 18.6703H22.2203C22.5724 18.6757 22.922 18.6103 23.2484 18.4781C23.5748 18.3458 23.8713 18.1493 24.1203 17.9003C24.3693 17.6513 24.5658 17.3548 24.6981 17.0284C24.8303 16.702 24.8957 16.3524 24.8903 16.0003V2.67031C24.8957 2.31819 24.8303 1.96857 24.6981 1.64219C24.5658 1.31582 24.3693 1.01932 24.1203 0.770309C23.8713 0.521293 23.5748 0.324824 23.2484 0.192555C22.922 0.0602862 22.5724 -0.00508849 22.2203 0.000308941ZM19.5603 12.4403C19.5603 12.6741 19.5143 12.9055 19.4248 13.1215C19.3354 13.3374 19.2042 13.5337 19.039 13.699C18.8737 13.8642 18.6774 13.9954 18.4615 14.0848C18.2455 14.1743 18.0141 14.2203 17.7803 14.2203H7.11031C6.63822 14.2203 6.18547 14.0328 5.85166 13.699C5.51784 13.3651 5.33031 12.9124 5.33031 12.4403V8.89031H19.5603V12.4403ZM19.5603 7.11031H5.33031V6.22031C5.33031 5.74822 5.51784 5.29547 5.85166 4.96166C6.18547 4.62784 6.63822 4.44031 7.11031 4.44031H17.7803C18.0141 4.44031 18.2455 4.48635 18.4615 4.5758C18.6774 4.66526 18.8737 4.79637 19.039 4.96166C19.2042 5.12695 19.3354 5.32317 19.4248 5.53913C19.5143 5.75509 19.5603 5.98656 19.5603 6.22031V7.11031Z" fill="#CDCCCC"/>
</svg>
